<mxfile host="Electron" modified="2024-01-24T11:04:48.581Z" agent="Mozilla/5.0 (Windows NT 10.0; Win64; x64) AppleWebKit/537.36 (KHTML, like Gecko) draw.io/22.1.21 Chrome/120.0.6099.109 Electron/28.1.0 Safari/537.36" etag="W6ahlWWhqDVGiih1b1WK" version="22.1.21" type="device">
  <diagram id="R2lEEEUBdFMjLlhIrx00" name="Page-1">
    <mxGraphModel dx="1276" dy="654" grid="1" gridSize="10" guides="1" tooltips="1" connect="1" arrows="1" fold="1" page="1" pageScale="1" pageWidth="850" pageHeight="1100" math="0" shadow="0" extFonts="Permanent Marker^https://fonts.googleapis.com/css?family=Permanent+Marker">
      <root>
        <mxCell id="0" />
        <mxCell id="1" parent="0" />
        <mxCell id="C-vyLk0tnHw3VtMMgP7b-23" value="Videogame" style="shape=table;startSize=30;container=1;collapsible=1;childLayout=tableLayout;fixedRows=1;rowLines=0;fontStyle=1;align=center;resizeLast=1;" parent="1" vertex="1">
          <mxGeometry x="700" y="450" width="258" height="165" as="geometry" />
        </mxCell>
        <mxCell id="C-vyLk0tnHw3VtMMgP7b-24" value="" style="shape=partialRectangle;collapsible=0;dropTarget=0;pointerEvents=0;fillColor=none;points=[[0,0.5],[1,0.5]];portConstraint=eastwest;top=0;left=0;right=0;bottom=1;" parent="C-vyLk0tnHw3VtMMgP7b-23" vertex="1">
          <mxGeometry y="30" width="258" height="30" as="geometry" />
        </mxCell>
        <mxCell id="C-vyLk0tnHw3VtMMgP7b-25" value="PK" style="shape=partialRectangle;overflow=hidden;connectable=0;fillColor=none;top=0;left=0;bottom=0;right=0;fontStyle=1;" parent="C-vyLk0tnHw3VtMMgP7b-24" vertex="1">
          <mxGeometry width="30" height="30" as="geometry">
            <mxRectangle width="30" height="30" as="alternateBounds" />
          </mxGeometry>
        </mxCell>
        <mxCell id="C-vyLk0tnHw3VtMMgP7b-26" value="id int NOT NULL " style="shape=partialRectangle;overflow=hidden;connectable=0;fillColor=none;top=0;left=0;bottom=0;right=0;align=left;spacingLeft=6;fontStyle=5;" parent="C-vyLk0tnHw3VtMMgP7b-24" vertex="1">
          <mxGeometry x="30" width="228" height="30" as="geometry">
            <mxRectangle width="228" height="30" as="alternateBounds" />
          </mxGeometry>
        </mxCell>
        <mxCell id="C-vyLk0tnHw3VtMMgP7b-27" value="" style="shape=partialRectangle;collapsible=0;dropTarget=0;pointerEvents=0;fillColor=none;points=[[0,0.5],[1,0.5]];portConstraint=eastwest;top=0;left=0;right=0;bottom=0;" parent="C-vyLk0tnHw3VtMMgP7b-23" vertex="1">
          <mxGeometry y="60" width="258" height="95" as="geometry" />
        </mxCell>
        <mxCell id="C-vyLk0tnHw3VtMMgP7b-28" value="" style="shape=partialRectangle;overflow=hidden;connectable=0;fillColor=none;top=0;left=0;bottom=0;right=0;" parent="C-vyLk0tnHw3VtMMgP7b-27" vertex="1">
          <mxGeometry width="30" height="95" as="geometry">
            <mxRectangle width="30" height="95" as="alternateBounds" />
          </mxGeometry>
        </mxCell>
        <mxCell id="C-vyLk0tnHw3VtMMgP7b-29" value="name VARCHAR(255)&#xa;description VARCHAR(255)&#xa;photo VARCHAR(255)&#xa;price DOUBLE" style="shape=partialRectangle;overflow=hidden;connectable=0;fillColor=none;top=0;left=0;bottom=0;right=0;align=left;spacingLeft=6;" parent="C-vyLk0tnHw3VtMMgP7b-27" vertex="1">
          <mxGeometry x="30" width="228" height="95" as="geometry">
            <mxRectangle width="228" height="95" as="alternateBounds" />
          </mxGeometry>
        </mxCell>
        <mxCell id="ZqygXw_bVUILmCovFtPm-37" value="Type" style="shape=table;startSize=30;container=1;collapsible=1;childLayout=tableLayout;fixedRows=1;rowLines=0;fontStyle=1;align=center;resizeLast=1;" parent="1" vertex="1">
          <mxGeometry x="1088" y="450" width="258" height="165" as="geometry" />
        </mxCell>
        <mxCell id="ZqygXw_bVUILmCovFtPm-38" value="" style="shape=partialRectangle;collapsible=0;dropTarget=0;pointerEvents=0;fillColor=none;points=[[0,0.5],[1,0.5]];portConstraint=eastwest;top=0;left=0;right=0;bottom=1;" parent="ZqygXw_bVUILmCovFtPm-37" vertex="1">
          <mxGeometry y="30" width="258" height="30" as="geometry" />
        </mxCell>
        <mxCell id="ZqygXw_bVUILmCovFtPm-39" value="PK" style="shape=partialRectangle;overflow=hidden;connectable=0;fillColor=none;top=0;left=0;bottom=0;right=0;fontStyle=1;" parent="ZqygXw_bVUILmCovFtPm-38" vertex="1">
          <mxGeometry width="30" height="30" as="geometry">
            <mxRectangle width="30" height="30" as="alternateBounds" />
          </mxGeometry>
        </mxCell>
        <mxCell id="ZqygXw_bVUILmCovFtPm-40" value="id int NOT NULL " style="shape=partialRectangle;overflow=hidden;connectable=0;fillColor=none;top=0;left=0;bottom=0;right=0;align=left;spacingLeft=6;fontStyle=5;" parent="ZqygXw_bVUILmCovFtPm-38" vertex="1">
          <mxGeometry x="30" width="228" height="30" as="geometry">
            <mxRectangle width="228" height="30" as="alternateBounds" />
          </mxGeometry>
        </mxCell>
        <mxCell id="ZqygXw_bVUILmCovFtPm-41" value="" style="shape=partialRectangle;collapsible=0;dropTarget=0;pointerEvents=0;fillColor=none;points=[[0,0.5],[1,0.5]];portConstraint=eastwest;top=0;left=0;right=0;bottom=0;" parent="ZqygXw_bVUILmCovFtPm-37" vertex="1">
          <mxGeometry y="60" width="258" height="95" as="geometry" />
        </mxCell>
        <mxCell id="ZqygXw_bVUILmCovFtPm-42" value="" style="shape=partialRectangle;overflow=hidden;connectable=0;fillColor=none;top=0;left=0;bottom=0;right=0;" parent="ZqygXw_bVUILmCovFtPm-41" vertex="1">
          <mxGeometry width="30" height="95" as="geometry">
            <mxRectangle width="30" height="95" as="alternateBounds" />
          </mxGeometry>
        </mxCell>
        <mxCell id="ZqygXw_bVUILmCovFtPm-43" value="name VARCHAR(255)&#xa;description VARCHAR(255)" style="shape=partialRectangle;overflow=hidden;connectable=0;fillColor=none;top=0;left=0;bottom=0;right=0;align=left;spacingLeft=6;" parent="ZqygXw_bVUILmCovFtPm-41" vertex="1">
          <mxGeometry x="30" width="228" height="95" as="geometry">
            <mxRectangle width="228" height="95" as="alternateBounds" />
          </mxGeometry>
        </mxCell>
        <mxCell id="ZqygXw_bVUILmCovFtPm-48" value="" style="resizable=0;html=1;whiteSpace=wrap;align=right;verticalAlign=bottom;" parent="1" connectable="0" vertex="1">
          <mxGeometry x="590.2121212121212" y="667.5" as="geometry">
            <mxPoint x="-165" y="-13" as="offset" />
          </mxGeometry>
        </mxCell>
        <mxCell id="FiJAGuMFsvXs07sMnBCX-3" value="" style="endArrow=none;html=1;rounded=0;exitX=1;exitY=0.5;exitDx=0;exitDy=0;entryX=0;entryY=0.5;entryDx=0;entryDy=0;" parent="1" source="C-vyLk0tnHw3VtMMgP7b-27" target="ZqygXw_bVUILmCovFtPm-41" edge="1">
          <mxGeometry relative="1" as="geometry">
            <mxPoint x="1008" y="560" as="sourcePoint" />
            <mxPoint x="1168" y="560" as="targetPoint" />
          </mxGeometry>
        </mxCell>
        <mxCell id="FiJAGuMFsvXs07sMnBCX-4" value="N" style="text;html=1;align=center;verticalAlign=middle;resizable=0;points=[];autosize=1;strokeColor=none;fillColor=none;" parent="1" vertex="1">
          <mxGeometry x="953" y="528" width="30" height="30" as="geometry" />
        </mxCell>
        <mxCell id="FiJAGuMFsvXs07sMnBCX-5" value="N" style="text;html=1;align=center;verticalAlign=middle;resizable=0;points=[];autosize=1;strokeColor=none;fillColor=none;" parent="1" vertex="1">
          <mxGeometry x="1063" y="528" width="30" height="30" as="geometry" />
        </mxCell>
        <mxCell id="FiJAGuMFsvXs07sMnBCX-7" value="Purchase" style="shape=table;startSize=30;container=1;collapsible=1;childLayout=tableLayout;fixedRows=1;rowLines=0;fontStyle=1;align=center;resizeLast=1;" parent="1" vertex="1">
          <mxGeometry x="280" y="450" width="258" height="165" as="geometry" />
        </mxCell>
        <mxCell id="FiJAGuMFsvXs07sMnBCX-8" value="" style="shape=partialRectangle;collapsible=0;dropTarget=0;pointerEvents=0;fillColor=none;points=[[0,0.5],[1,0.5]];portConstraint=eastwest;top=0;left=0;right=0;bottom=1;" parent="FiJAGuMFsvXs07sMnBCX-7" vertex="1">
          <mxGeometry y="30" width="258" height="30" as="geometry" />
        </mxCell>
        <mxCell id="FiJAGuMFsvXs07sMnBCX-9" value="PK" style="shape=partialRectangle;overflow=hidden;connectable=0;fillColor=none;top=0;left=0;bottom=0;right=0;fontStyle=1;" parent="FiJAGuMFsvXs07sMnBCX-8" vertex="1">
          <mxGeometry width="30" height="30" as="geometry">
            <mxRectangle width="30" height="30" as="alternateBounds" />
          </mxGeometry>
        </mxCell>
        <mxCell id="FiJAGuMFsvXs07sMnBCX-10" value="id NOT NULL " style="shape=partialRectangle;overflow=hidden;connectable=0;fillColor=none;top=0;left=0;bottom=0;right=0;align=left;spacingLeft=6;fontStyle=5;" parent="FiJAGuMFsvXs07sMnBCX-8" vertex="1">
          <mxGeometry x="30" width="228" height="30" as="geometry">
            <mxRectangle width="228" height="30" as="alternateBounds" />
          </mxGeometry>
        </mxCell>
        <mxCell id="FiJAGuMFsvXs07sMnBCX-11" value="" style="shape=partialRectangle;collapsible=0;dropTarget=0;pointerEvents=0;fillColor=none;points=[[0,0.5],[1,0.5]];portConstraint=eastwest;top=0;left=0;right=0;bottom=0;" parent="FiJAGuMFsvXs07sMnBCX-7" vertex="1">
          <mxGeometry y="60" width="258" height="95" as="geometry" />
        </mxCell>
        <mxCell id="FiJAGuMFsvXs07sMnBCX-12" value="" style="shape=partialRectangle;overflow=hidden;connectable=0;fillColor=none;top=0;left=0;bottom=0;right=0;" parent="FiJAGuMFsvXs07sMnBCX-11" vertex="1">
          <mxGeometry width="30" height="95" as="geometry">
            <mxRectangle width="30" height="95" as="alternateBounds" />
          </mxGeometry>
        </mxCell>
        <mxCell id="FiJAGuMFsvXs07sMnBCX-13" value="data DATE&#xa;videogame VARCHAR(255)&#xa;quantity INT" style="shape=partialRectangle;overflow=hidden;connectable=0;fillColor=none;top=0;left=0;bottom=0;right=0;align=left;spacingLeft=6;" parent="FiJAGuMFsvXs07sMnBCX-11" vertex="1">
          <mxGeometry x="30" width="228" height="95" as="geometry">
            <mxRectangle width="228" height="95" as="alternateBounds" />
          </mxGeometry>
        </mxCell>
        <mxCell id="nBXua4dy1VR_UgJo8K_c-1" value="" style="endArrow=none;html=1;rounded=0;exitX=1;exitY=0.5;exitDx=0;exitDy=0;entryX=0;entryY=0.5;entryDx=0;entryDy=0;" edge="1" parent="1" source="FiJAGuMFsvXs07sMnBCX-11" target="C-vyLk0tnHw3VtMMgP7b-27">
          <mxGeometry relative="1" as="geometry">
            <mxPoint x="968" y="568" as="sourcePoint" />
            <mxPoint x="1098" y="568" as="targetPoint" />
          </mxGeometry>
        </mxCell>
        <mxCell id="nBXua4dy1VR_UgJo8K_c-2" value="N" style="text;html=1;align=center;verticalAlign=middle;resizable=0;points=[];autosize=1;strokeColor=none;fillColor=none;" vertex="1" parent="1">
          <mxGeometry x="538" y="528" width="30" height="30" as="geometry" />
        </mxCell>
        <mxCell id="nBXua4dy1VR_UgJo8K_c-3" value="1" style="text;html=1;align=center;verticalAlign=middle;resizable=0;points=[];autosize=1;strokeColor=none;fillColor=none;" vertex="1" parent="1">
          <mxGeometry x="670" y="528" width="30" height="30" as="geometry" />
        </mxCell>
      </root>
    </mxGraphModel>
  </diagram>
</mxfile>
